# xmcd CD database file
#
# Track frame offsets:
#	150
#	15146
#	30783
#	45885
#	60287
#	78727
#	94302
#	107802
#	124788
#	145419
#	162058
#	176446
#	193699
#	207719
#	221685
#	232584
#	248983
#	262290
#	277161
#	294928
#	306542
#	320503
#	339507
#
# Disc length: 4688 seconds
#
# Revision: 0
# Processed by: cddbd v1.5PL3 Copyright (c) Steve Scherf et al.
# Submitted via: CDex 1.51
#
DISCID=4a124e17
DTITLE=Norah Jones - Feels Like Home
DYEAR=2004
DGENRE=Blues
TTITLE0=Norah Jones - Sunrise
TTITLE1=Norah Jones - What Am I To You
TTITLE2=Norah Jones - Those Sweet Words
TTITLE3=Norah Jones - Carnival Town
TTITLE4=Norah Jones - In The Morning
TTITLE5=Norah Jones - Be Here To Love Me
TTITLE6=Norah Jones - Creepin' In
TTITLE7=Norah Jones - Toes
TTITLE8=Norah Jones - Humble Me
TTITLE9=Norah Jones - Above Ground
TTITLE10=Norah Jones - The Long Way Home
TTITLE11=Norah Jones - The Prettiest Thing
TTITLE12=Norah Jones - Don't Miss You At All
TTITLE13=Norah Jones - Don't Know Why
TTITLE14=Norah Jones - Seven Years
TTITLE15=Norah Jones - Cold Cold Heart
TTITLE16=Norah Jones - Feelin' The Same Way
TTITLE17=Norah Jones - Come Away With Me
TTITLE18=Norah Jones - Shoot The Moon
TTITLE19=Norah Jones - Turn Me On
TTITLE20=Norah Jones - Lonestar
TTITLE21=Norah Jones - I've Got To See You Again
TTITLE22=Norah Jones - Painter Song
EXTD=YEAR: 2004
EXTT0=
EXTT1=
EXTT2=
EXTT3=
EXTT4=
EXTT5=
EXTT6=
EXTT7=
EXTT8=
EXTT9=
EXTT10=
EXTT11=
EXTT12=
EXTT13=
EXTT14=
EXTT15=
EXTT16=
EXTT17=
EXTT18=
EXTT19=
EXTT20=
EXTT21=
EXTT22=
PLAYORDER=
